<svg viewBox="0 0 20 20" xmlns="http://www.w3.org/2000/svg">
    <circle cx="10" cy="10" r="10" fill="#179CDE"/>
    <path fill="white" d="M15.099714387320043,5.447090385192264 c-0.23558814041817294,0.0821819094482003 -11.861588930356838,4.180319793931765 -12.091698276811798,4.261132004889161 c-0.19449718569407365,0.0684849245401666 -0.23764268815437842,0.23627298966357568 -0.006848492454016689,0.32872763779279984 l2.5996877355447223,1.0409708530105313 l1.5409108021537472,0.6163643208614985 L14.664150267244581,6.170291188336423 c0.10135768831944662,-0.07259402001257674 0.21778206003773035,0.06643037680396152 0.1438183415343499,0.14587288927055483 c-0.07259402001257674,0.08012736171199522 -5.389763561311104,5.8301216261043765 -5.389763561311104,5.8301216261043765 v0.001369698490803337 l-0.3095518589215533,0.3444791704370395 l0.4109095472410007,0.22120630626473833 l3.410549242100293,1.8367656761672668 c0.19997597965728728,0.10683648228266003 0.45884899441911625,0.018490929625845 0.5156914817874546,-0.22873964796415724 c0.0684849245401666,-0.29106092929570987 1.9483961031677368,-8.396251748624413 1.9901719071372392,-8.577051949410455 c0.05478793963213351,-0.23490329117277245 -0.09998798982864322,-0.3780367834617193 -0.3355761302468175,-0.2944851755227172 zM7.12806917084466,15.396580222387655 c0,0.1684729143688102 0.09587889435623355,0.21572751230152545 0.22600025098254975,0.09587889435623355 c0.17258200984121974,-0.15614562795158016 1.9518203493947466,-1.7532140682282624 1.9518203493947466,-1.7532140682282624 L7.12806917084466,12.613352889075287 v2.783227333312367 z"/>
</svg>